<?xml version="1.0" encoding="utf-8"?>
<!-- Generator: Adobe Illustrator 25.0.1, SVG Export Plug-In . SVG Version: 6.00 Build 0)  -->
<svg version="1.1" id="logo_symbol_white" xmlns="http://www.w3.org/2000/svg" xmlns:xlink="http://www.w3.org/1999/xlink" x="0px"
	 y="0px" viewBox="0 0 128 128" style="enable-background:new 0 0 128 128;" xml:space="preserve">
<style type="text/css">
	.st0{fill:none;}
	.st1{fill:#487CE5;}
	.st2{fill:#FFFFFF;}
</style>
<path id="패스_129_1_" class="st0" d="M0,0h128v128H0V0z"/>
<path id="패스_130_1_" class="st0" d="M0,0h128v128H0V0z"/>
<path id="패스_131_1_" class="st2" d="M103.7,31.4L103.7,31.4c2,2.4,3.8,5,5.4,7.7l0,0c0,0,21.4,29.2-2.1,76.2l0,0
	c-0.1,0-0.2-0.1-0.3-0.1C92,110.2,84.1,94.3,89,79.6c3.9-11.7,2.2-20.6,1.5-23.2c0-0.3-0.1-0.5-0.2-0.8l0,0
	c-1.2-3.8-2.9-7.3-5.1-10.6l0,0C84,43.3,81,39.9,81,39.9c-7.1-7.2-16.7-11.2-26.8-11.2c-18.1,0-33.6,13-36.7,30.8
	c-0.7,3.6-3.8,6.2-7.5,6.2l0,0c0-14.6,6.1-28.6,16.7-38.6c21.4-20.2,55-19.2,75.2,2.2l0,0C101.9,29.3,103.5,31.2,103.7,31.4z"/>
</svg>
