<?xml version="1.0"?>
<svg xmlns="http://www.w3.org/2000/svg" xmlns:xlink="http://www.w3.org/1999/xlink" xmlns:svgjs="http://svgjs.com/svgjs" version="1.1" width="512" height="512" x="0" y="0" viewBox="0 0 512 512" style="enable-background:new 0 0 512 512" xml:space="preserve" class=""><g>
<g xmlns="http://www.w3.org/2000/svg">
	<g>
		<path d="M176,106c-5.52,0-10,4.48-10,10s4.48,10,10,10s10-4.48,10-10S181.52,106,176,106z" fill="#555555" data-original="#000000" style=""/>
	</g>
</g>
<g xmlns="http://www.w3.org/2000/svg">
	<g>
		<path d="M502,246h-33.243c-2.495-52.4-24.555-101.786-62.763-139.994S318.4,45.738,266,43.243V10c0-5.523-4.477-10-10-10    s-10,4.477-10,10v33.243c-52.4,2.495-101.786,24.555-139.994,62.763C67.798,144.214,45.738,193.6,43.243,246H10    c-5.523,0-10,4.477-10,10s4.477,10,10,10h33.243c2.495,52.4,24.555,101.786,62.763,139.994    C144.214,444.202,193.6,466.262,246,468.757V502c0,5.523,4.477,10,10,10s10-4.477,10-10v-33.243    c52.4-2.495,101.786-24.555,139.994-62.763S466.262,318.4,468.757,266H502c5.523,0,10-4.477,10-10S507.523,246,502,246z     M246,448.727C149.128,443.497,68.503,362.872,63.273,266h23.029C91.304,351.791,160.209,420.696,246,425.698V448.727z M256,366    c-5.523,0-10,4.477-10,10v29.659c-74.758-4.946-134.713-64.9-139.659-139.659H136c5.523,0,10-4.477,10-10s-4.477-10-10-10h-29.663    c2.372-36.092,17.549-69.771,43.354-95.719c3.894-3.916,3.876-10.248-0.04-14.142c-3.917-3.894-10.248-3.877-14.142,0.04    C105.951,165.902,88.699,204.584,86.301,246H63.273C68.503,149.128,149.128,68.503,246,63.273v23.034    c-11.44,0.669-22.764,2.472-33.779,5.412c-5.336,1.424-8.507,6.904-7.083,12.24s6.904,8.507,12.24,7.083    c9.335-2.491,18.926-4.065,28.622-4.708V136c0,5.523,4.477,10,10,10s10-4.477,10-10v-29.659    c74.758,4.946,134.713,64.9,139.659,139.659H376c-5.523,0-10,4.477-10,10s4.477,10,10,10h29.659    c-4.946,74.758-64.9,134.713-139.659,139.659V376C266,370.477,261.523,366,256,366z M266,448.727v-23.029    c85.791-5.002,154.696-73.907,159.698-159.698h23.029C443.497,362.872,362.872,443.497,266,448.727z M425.698,246    C420.696,160.209,351.791,91.304,266,86.302V63.273c96.872,5.23,177.497,85.855,182.727,182.727H425.698z" fill="#555555" data-original="#000000" style=""/>
	</g>
</g>
<g xmlns="http://www.w3.org/2000/svg">
	<g>
		<path d="M336,246h-10.726c-4.399-30.609-28.666-54.875-59.274-59.274V176c0-5.523-4.477-10-10-10s-10,4.477-10,10v10.726    c-30.609,4.399-54.875,28.666-59.274,59.274H176c-5.523,0-10,4.477-10,10s4.477,10,10,10h10.726    c4.399,30.609,28.666,54.875,59.274,59.274V336c0,5.523,4.477,10,10,10s10-4.477,10-10v-10.726    c30.609-4.399,54.875-28.666,59.274-59.274H336c5.523,0,10-4.477,10-10S341.523,246,336,246z M246,304.994    c-19.563-3.987-35.007-19.431-38.994-38.994H246V304.994z M246,246h-38.994c3.987-19.563,19.431-35.007,38.994-38.994V246z     M266,304.994V266h38.994C301.007,285.563,285.563,301.007,266,304.994z M266,246v-38.994    c19.563,3.987,35.007,19.431,38.994,38.994H266z" fill="#555555" data-original="#000000" style=""/>
	</g>
</g>
<g xmlns="http://www.w3.org/2000/svg">
</g>
<g xmlns="http://www.w3.org/2000/svg">
</g>
<g xmlns="http://www.w3.org/2000/svg">
</g>
<g xmlns="http://www.w3.org/2000/svg">
</g>
<g xmlns="http://www.w3.org/2000/svg">
</g>
<g xmlns="http://www.w3.org/2000/svg">
</g>
<g xmlns="http://www.w3.org/2000/svg">
</g>
<g xmlns="http://www.w3.org/2000/svg">
</g>
<g xmlns="http://www.w3.org/2000/svg">
</g>
<g xmlns="http://www.w3.org/2000/svg">
</g>
<g xmlns="http://www.w3.org/2000/svg">
</g>
<g xmlns="http://www.w3.org/2000/svg">
</g>
<g xmlns="http://www.w3.org/2000/svg">
</g>
<g xmlns="http://www.w3.org/2000/svg">
</g>
<g xmlns="http://www.w3.org/2000/svg">
</g>
</g></svg>
