<?xml version="1.0"?>
<svg xmlns="http://www.w3.org/2000/svg" xmlns:xlink="http://www.w3.org/1999/xlink" xmlns:svgjs="http://svgjs.com/svgjs" version="1.1" width="512" height="512" x="0" y="0" viewBox="0 0 512 512" style="enable-background:new 0 0 512 512" xml:space="preserve" class=""><g><g xmlns="http://www.w3.org/2000/svg"><g><path d="m377.897 290.959h-267.652c-5.522 0-10 4.478-10 10v145.89c0 5.522 4.478 10 10 10h267.652c5.522 0 10-4.478 10-10v-145.89c0-5.522-4.477-10-10-10zm-132.067 92.694h-36.799l26.799-45.802v18.187c0 5.522 4.478 10 10 10h36.12l-26.12 44.22v-16.604c0-5.523-4.477-10.001-10-10.001zm-62.867 4.951c-1.81 3.092-1.826 6.917-.044 10.024 1.782 3.108 5.092 5.025 8.675 5.025h44.236v33.195h-71.019v-125.89h63.582zm-62.718 48.245v-125.89h24.566v125.89zm247.652 0h-104.545l44.73-75.725c1.826-3.092 1.854-6.925.074-10.043-1.779-3.118-5.094-5.043-8.685-5.043h-43.641v-35.079h112.067z" fill="#555555" data-original="#000000" style=""/><path d="m419.491 190.518h-123.763c-5.522 0-10 4.478-10 10s4.478 10 10 10h123.764c39.981 0 72.509 32.527 72.509 72.51v8.367c0 35.391-25.145 64.889-58.905 71.239v-70.385c0-25.633-20.854-46.486-46.486-46.486h-288.192c-25.633 0-46.486 20.854-46.486 46.486v29.847h-31.345c-11.028 0-20 8.972-20 20v67.492c0 11.028 8.972 20 20 20h31.345v25.973c0 25.633 20.854 46.486 46.486 46.486h288.19c25.633 0 46.486-20.854 46.486-46.486v-72.647c44.95-6.572 78.906-45.07 78.906-91.519v-8.367c0-51.01-41.499-92.51-92.509-92.51zm-398.904 219.069v-67.492h31.345v67.492zm392.508 45.973c0 14.604-11.882 26.486-26.486 26.486h-288.191c-14.604 0-26.486-11.882-26.486-26.486v-163.312c0-14.604 11.882-26.486 26.486-26.486h288.19c14.604 0 26.486 11.882 26.486 26.486v163.312z" fill="#555555" data-original="#000000" style=""/><path d="m502 111.881h-42.148v-51.32h42.148c5.522 0 10-4.478 10-10s-4.478-10-10-10h-42.148v-20.607c0-5.522-4.478-10-10-10h-66.748c-23.257 0-42.178 18.921-42.178 42.178v23.339h-273.403c-37.232 0-67.523 30.291-67.523 67.523s30.291 67.523 67.523 67.523h140.175c5.522 0 10-4.478 10-10s-4.478-10-10-10h-140.175c-26.204.001-47.523-21.319-47.523-47.523s21.319-47.523 47.523-47.523h273.403v24.839c0 23.257 18.921 42.178 42.178 42.178h66.747c5.522 0 10-4.478 10-10v-20.606h42.149c5.522 0 10-4.478 10-10s-4.478-10.001-10-10.001zm-62.148 30.606h-56.747c-12.229 0-22.178-9.949-22.178-22.178l-.001-68.178c0-12.229 9.949-22.178 22.178-22.178h56.748z" fill="#555555" data-original="#000000" style=""/><path d="m403.128 55.698c-5.522 0-10 4.478-10 10v39.322c0 5.522 4.478 10 10 10s10-4.478 10-10v-39.322c0-5.522-4.478-10-10-10z" fill="#555555" data-original="#000000" style=""/><path d="m244.609 206.069c4.997 7.436 16.85 4.786 18.206-4.083 1.367-8.938-9.441-14.875-16.311-9.137-3.862 3.228-4.683 9.038-1.895 13.22z" fill="#555555" data-original="#000000" style=""/></g></g></g></svg>
