<?xml version="1.0" encoding="utf-8"?>
<!-- Generator: Adobe Illustrator 25.0.1, SVG Export Plug-In . SVG Version: 6.00 Build 0)  -->
<svg version="1.1" id="Layer_1" xmlns="http://www.w3.org/2000/svg" xmlns:xlink="http://www.w3.org/1999/xlink" x="0px" y="0px"
	 viewBox="0 0 128 128" style="enable-background:new 0 0 128 128;" xml:space="preserve">
<style type="text/css">
	.st0{fill:#487CE5;}
	.st1{fill:#555555;}
</style>
<g>
	<path class="st0" d="M74.9,113.2h-62c-1.4,0-2.5-1.1-2.5-2.5V92.4c0-1.4,1.1-2.5,2.5-2.5s2.5,1.1,2.5,2.5v15.8h57V5h-57v67.3
		c0,1.4-1.1,2.5-2.5,2.5s-2.5-1.1-2.5-2.5V2.5c0-1.4,1.1-2.5,2.5-2.5h62c1.4,0,2.5,1.1,2.5,2.5v108.2
		C77.4,112.1,76.2,113.2,74.9,113.2z"/>
	<path class="st0" d="M12.8,84c-0.7,0-1.3-0.3-1.8-0.7c-0.1-0.1-0.2-0.3-0.3-0.4c-0.1-0.1-0.2-0.3-0.2-0.4c-0.1-0.2-0.1-0.3-0.2-0.5
		c0-0.2,0-0.3,0-0.5s0-0.3,0-0.5c0-0.2,0.1-0.3,0.2-0.5c0.1-0.2,0.1-0.3,0.2-0.4c0.1-0.1,0.2-0.3,0.3-0.4c0.1-0.1,0.2-0.2,0.4-0.3
		c0.1-0.1,0.3-0.2,0.4-0.2c0.2-0.1,0.3-0.1,0.5-0.1c0.3-0.1,0.7-0.1,1,0c0.2,0,0.3,0.1,0.5,0.1c0.2,0.1,0.3,0.1,0.4,0.2
		c0.1,0.1,0.3,0.2,0.4,0.3c0.1,0.1,0.2,0.2,0.3,0.4c0.1,0.1,0.2,0.3,0.2,0.4c0.1,0.1,0.1,0.3,0.1,0.5c0,0.2,0,0.3,0,0.5s0,0.3,0,0.5
		c0,0.2-0.1,0.3-0.1,0.5c-0.1,0.2-0.1,0.3-0.2,0.4c-0.1,0.1-0.2,0.3-0.3,0.4c-0.1,0.1-0.2,0.2-0.4,0.3c-0.1,0.1-0.3,0.2-0.4,0.2
		c-0.2,0.1-0.3,0.1-0.5,0.1C13.2,84,13,84,12.8,84z"/>
	<path class="st0" d="M29.7,56.5h-5c-1.4,0-2.5-1.1-2.5-2.5s1.1-2.5,2.5-2.5h5c1.4,0,2.5,1.1,2.5,2.5S31.1,56.5,29.7,56.5z"/>
	<path class="st0" d="M46.7,56.5h-5c-1.4,0-2.5-1.1-2.5-2.5s1.1-2.5,2.5-2.5h5c1.4,0,2.5,1.1,2.5,2.5S48.1,56.5,46.7,56.5z"/>
	<path class="st0" d="M63.6,56.5h-5c-1.4,0-2.5-1.1-2.5-2.5s1.1-2.5,2.5-2.5h5c1.4,0,2.5,1.1,2.5,2.5S65,56.5,63.6,56.5z"/>
	<path class="st0" d="M85.3,128H2.9c-0.8,0-1.6-0.4-2.1-1.1c-0.5-0.7-0.5-1.6-0.2-2.4L7,109.7c0.4-0.9,1.3-1.5,2.3-1.5h3.5
		c1.4,0,2.5,1.1,2.5,2.5c0,1.4-1.1,2.5-2.5,2.5h-1.9L6.7,123h74.9l-4.2-9.8h-2.6c-1.4,0-2.5-1.1-2.5-2.5c0-1.4,1.1-2.5,2.5-2.5h4.2
		c1,0,1.9,0.6,2.3,1.5l6.3,14.8c0.3,0.8,0.2,1.7-0.2,2.4S86.2,128,85.3,128z"/>
	<path class="st0" d="M43.8,100.1c-8.7,0-15.2-6.1-15.2-14.2c0-1.3,0.1-10.8,13.5-24c1-1,2.5-1,3.5,0C59,75,59.1,84.5,59.1,85.9
		C59.1,94,52.5,100.1,43.8,100.1z M43.8,67.3c-10.5,11-10.2,18.3-10.2,18.4c0,0,0,0.1,0,0.2c0,5.4,4.3,9.2,10.2,9.2
		s10.2-3.9,10.2-9.2c0-0.1,0-0.1,0-0.2C54.1,85.6,54.3,78.3,43.8,67.3z"/>
	<path class="st0" d="M63.1,46.1H24.7c-1.4,0-2.5-1.1-2.5-2.5V13.5c0-1.4,1.1-2.5,2.5-2.5h38.4c1.4,0,2.5,1.1,2.5,2.5v30.1
		C65.6,45,64.5,46.1,63.1,46.1z M27.2,41.1h33.4V16H27.2V41.1z"/>
	<path class="st0" d="M52.6,31.1H35.3c-1.4,0-2.5-1.1-2.5-2.5s1.1-2.5,2.5-2.5h17.3c1.4,0,2.5,1.1,2.5,2.5S54,31.1,52.6,31.1z"/>
	<path class="st0" d="M105.9,101.1c-5.8,0-10.5-4.7-10.5-10.5v-38c0-3.6-2.9-6.5-6.5-6.5H74.9c-1.4,0-2.5-1.1-2.5-2.5
		s1.1-2.5,2.5-2.5h14.1c6.3,0,11.5,5.1,11.5,11.5v38c0,3.1,2.5,5.5,5.5,5.5c3.1,0,5.5-2.5,5.5-5.5V27.6c0-7.5,6.1-13.6,13.6-13.6
		c1.4,0,2.5,1.1,2.5,2.5s-1.1,2.5-2.5,2.5c-4.8,0-8.6,3.9-8.6,8.6v62.9C116.5,96.3,111.7,101.1,105.9,101.1z"/>
	<path class="st0" d="M114,51.7c-0.8,0-1.5-0.3-2-1c-0.8-1.1-0.6-2.7,0.5-3.5l9.1-7v-7H114c-1.4,0-2.5-1.1-2.5-2.5
		c0-1.4,1.1-2.5,2.5-2.5H124c1.4,0,2.5,1.1,2.5,2.5v10.8c0,0.8-0.4,1.5-1,2l-10.1,7.7C115,51.6,114.5,51.7,114,51.7z"/>
</g>
</svg>
