<?xml version="1.0" encoding="utf-8"?>
<!-- Generator: Adobe Illustrator 25.0.1, SVG Export Plug-In . SVG Version: 6.00 Build 0)  -->
<svg version="1.1" id="Layer_1" xmlns="http://www.w3.org/2000/svg" xmlns:xlink="http://www.w3.org/1999/xlink" x="0px" y="0px"
	 viewBox="0 0 64 64" style="enable-background:new 0 0 64 64;" xml:space="preserve">
<style type="text/css">
	.st0{fill:#E03643;}
	.st1{fill:#FFFFFF;}
	.st2{fill:#3CA1FC;}
</style>
<g>
	<g>
		<path class="st2" d="M60.1,28.1C60.1,12,46.5-1,30.2,0.1C16.3,1,5,12.1,4,25.9c-1.1,14.5,8.8,26.8,22.2,29.6l5.1,8.1
			c0.3,0.5,1,0.5,1.3,0l5.1-8.1C50.5,52.9,60.1,41.6,60.1,28.1z"/>
	</g>
</g>
<path class="st1" d="M41.7,24.6c-0.1-0.3-0.4-0.4-0.8-0.4h-7.6l2.2-11.8c0-0.2,0.1-0.5-0.1-0.7c-0.1-0.1-0.3-0.2-0.5-0.2
	c-0.4,0-0.6,0.3-0.6,0.4L22.4,29.4c-0.2,0.3-0.2,0.6-0.1,0.9c0.1,0.3,0.4,0.4,0.8,0.4h7.4L28.2,44c0,0.2-0.1,0.5,0.1,0.7
	c0.1,0.1,0.3,0.2,0.5,0.2c0,0,0,0,0,0c0.4,0,0.6-0.3,0.6-0.4l12.2-18.9C41.8,25.2,41.9,24.9,41.7,24.6z"/>
</svg>
