<?xml version="1.0" encoding="utf-8"?>
<!-- Generator: Adobe Illustrator 25.0.1, SVG Export Plug-In . SVG Version: 6.00 Build 0)  -->
<svg version="1.1" id="Layer_1" xmlns="http://www.w3.org/2000/svg" xmlns:xlink="http://www.w3.org/1999/xlink" x="0px" y="0px"
	 viewBox="0 0 64 64" style="enable-background:new 0 0 64 64;" xml:space="preserve">
<style type="text/css">
	.st0{fill:#E03643;}
	.st1{fill:#FFFFFF;}
</style>
<path class="st0" d="M60.1,28.1c0-16.1-13.6-29.1-29.9-28C16.3,1,5,12.1,4,25.9c-1.1,14.5,8.8,26.8,22.2,29.6l5.1,8.1
	c0.3,0.5,1,0.5,1.3,0l5.1-8.1C50.5,52.9,60.1,41.6,60.1,28.1z"/>
<path class="st1" d="M43.5,12.7c-0.4-0.4-1.1-0.4-1.5,0c-0.4,0.4-0.4,1.1,0,1.5l3.6,3.6v17.9c0,0.6-0.5,1.1-1.1,1.1
	c-0.6,0-1.1-0.5-1.1-1.1V19.7c0-0.9-0.8-1.7-1.7-1.7h-2.1c0,0,0,0,0,0V9.4H22v31.8h-3.7v4.1h24.8v-4.1h-3.7V20.1c0,0,0,0,0,0h1.1
	c0.3,0,0.6,0.3,0.6,0.6v15c0,1.8,1.4,3.2,3.2,3.2c1.8,0,3.2-1.4,3.2-3.2V16.9L43.5,12.7z M37,21.7H24.5V13H37V21.7z"/>
</svg>
