<svg xmlns="http://www.w3.org/2000/svg" width="56.184" height="63.94" viewBox="0 0 56.184 63.94">
  <g id="pin_store" transform="translate(-3.917 -0.035)">
    <path id="패스_2497" data-name="패스 2497" d="M60.1,28.1A28.09,28.09,0,1,0,26.2,55.5l5.1,8.1a.751.751,0,0,0,1.3,0l5.1-8.1A27.989,27.989,0,0,0,60.1,28.1Z" fill="#31d41f"/>
    <path id="패스_2498" data-name="패스 2498" d="M43.5,12.7A1.061,1.061,0,0,0,42,14.2l3.6,3.6V35.7a1.1,1.1,0,0,1-2.2,0v-16A1.752,1.752,0,0,0,41.7,18H39.6V9.4H22V41.2H18.3v4.1H43.1V41.2H39.4V20.1h1.1a.645.645,0,0,1,.6.6v15a3.2,3.2,0,0,0,6.4,0V16.9Zm-6.5,9H24.5V13H37Z" fill="#fff"/>
  </g>
</svg>
